# xmcd
#
# Track frame offsets:
#	150
#	19872
#	34857
#	53046
#	71468
#	88330
#	104519
#	122009
#	138388
#	156821
#
# Disc length: 2307 seconds
# Revision: 0
# Processed by: cddbd v1.5.2PL0 Copyright (c) Steve Scherf et al.
# Submitted via: dBpowerAMP V12.0
#
DISCID=8609010a
DTITLE=Kellie Parr - Wish
DYEAR=2012
DGENRE=Country
TTITLE0=Wish
TTITLE1=My Bleeding Heart
TTITLE2=Something For The Pain
TTITLE3=Be Strong
TTITLE4=Call Me
TTITLE5=LCP and Mercury
TTITLE6=Groupie (Superstar)
TTITLE7=Imaginary Friend
TTITLE8=Early Night
TTITLE9=Everybody Knows
EXTD=
EXTT0=
EXTT1=
EXTT2=
EXTT3=
EXTT4=
EXTT5=
EXTT6=
EXTT7=
EXTT8=
EXTT9=
PLAYORDER=
